<svg id="Group_136" data-name="Group 136" xmlns="http://www.w3.org/2000/svg" xmlns:xlink="http://www.w3.org/1999/xlink" width="766" height="1080" viewBox="0 0 766 1080">
  <defs>
    <linearGradient id="linear-gradient" x1="0.5" y1="1" x2="0.5" gradientUnits="objectBoundingBox">
      <stop offset="0" stop-color="#ffd" stop-opacity="0.502"/>
      <stop offset="0.656" stop-color="#fff"/>
    </linearGradient>
    <linearGradient id="linear-gradient-2" x1="-4.833" y1="1" x2="-4.833" gradientUnits="objectBoundingBox">
      <stop offset="0" stop-color="#ffd" stop-opacity="0.502"/>
      <stop offset="1" stop-color="#fff" stop-opacity="0.702"/>
    </linearGradient>
    <linearGradient id="linear-gradient-3" x1="0.5" y1="1" x2="0.5" gradientUnits="objectBoundingBox">
      <stop offset="0" stop-color="#ffd" stop-opacity="0.502"/>
      <stop offset="1" stop-color="#fff"/>
    </linearGradient>
  </defs>
  <rect id="Rectangle_8" data-name="Rectangle 8" width="766" height="1080" fill="#f1c278"/>
  <path id="Path_202" data-name="Path 202" d="M1507.1,633.052a100.388,100.388,0,0,0-6.369-29.6c-13.151-33.358-51.982-58.62-88.06-49.589a82.1,82.1,0,0,0-52.347,41.522c-6.1,11.857-10.6,26.6-23.029,31.436-22.555,8.779-42.477-23.75-66.637-22.286-15.723.952-26.407,15.626-36.186,27.975s-23.83,22.379-38.567,16.815c-4.57-1.726-8.358-5.016-12.656-7.338-14.117-7.629-37.966-6.017-51.122,3.17-13.324,9.3-21.546,34.52-35.38,39.422-15.068,5.341-36.462-2.318-49.708-2.16-28.867.343-49.86,3.322-74.791,15.58h457.54c49.679,0,66.446-17.218,74.853-38.367C1507.947,651.31,1507.744,641.985,1507.1,633.052Z" transform="translate(-875 265.647)" opacity="0.6" fill="url(#linear-gradient)"/>
  <path id="Path_203" data-name="Path 203" d="M1795.745,370.954c3.52.527,7.088.795,8.978,3.6a7.279,7.279,0,0,1,.925,5.231c-1.507,9.1-10.952,7.888-17.757,7.888H1609.344c7.908-4.366,17.527-4.558,26.618-4.2,4.218.165,8.688.361,12.385-1.678,3.93-2.167,6.164-6.394,8.446-10.259,3.823-6.477,10.33-13.306,17.595-11.36,5.136,1.376,8.555,6.848,13.8,7.7,5.886.95,11-4.422,12.543-9.577,1.994-6.667,3.7-13.09,7.784-18.933,3.932-5.621,9.71-10.213,16.447-11.505,3.216-.617,6.74-.416,9.489,1.366,3.062,1.984,4.653,5.52,6.442,8.7s4.324,6.431,7.934,6.963c4.2.62,7.839-2.623,11.432-4.891a20.575,20.575,0,0,1,12.756-3.436c4.464.432,8.831,2.977,10.814,7,2.017,4.092,1.384,8.913,1.336,13.475s.917,9.756,4.79,12.167A15.063,15.063,0,0,0,1795.745,370.954Z" transform="translate(-1075 -273.353)" opacity="0.6" fill="url(#linear-gradient-2)"/>
  <path id="Path_204" data-name="Path 204" d="M1239.346,482.648l-3.286,13.166h226.515c-9.515-5.253-21.088-5.484-32.026-5.056-5.076.2-10.453.434-14.9-2.019-4.728-2.607-7.417-7.694-10.162-12.344-4.6-7.793-12.43-16.01-21.17-13.668-6.18,1.656-10.294,8.24-16.61,9.259-7.039,1.137-13.2-5.315-15.564-12.042s-2.393-14.122-4.934-20.784a29.088,29.088,0,0,0-53.706-1.566c-3.373,7.5-3.846,16.822-10.093,22.169-13.494,11.549-37.058-7.465-51.2,3.283a9.925,9.925,0,0,0-3.908,5.685C1227.013,474.99,1233.657,479.738,1239.346,482.648Z" transform="translate(-1169 -171.44)" opacity="0.6" fill="url(#linear-gradient-3)"/>
  <g id="Group_15" data-name="Group 15" transform="translate(20 27)" opacity="0.8">
    <g id="Group_14" data-name="Group 14">
      <path id="Path_208" data-name="Path 208" d="M467.854,57.747l61.07,70.669,38.3-23.781-89.5-52.485a1.677,1.677,0,0,0-1.462-.114l-7.758,3.056A1.675,1.675,0,0,0,467.854,57.747Z" transform="translate(-160.677 5.079)" fill="#fff"/>
      <path id="Path_209" data-name="Path 209" d="M468.688,55.679l-.18.07a1.676,1.676,0,0,0-.654,2.655l61.07,70.669,38.3-23.781-10.253-6.012C540.055,115.315,506.7,102.736,468.688,55.679Z" transform="translate(-160.677 4.422)" fill="#ededed"/>
      <path id="Path_210" data-name="Path 210" d="M579.04,260.016l-22.387-90.678L598.2,151.819l-8.882,103.372a1.678,1.678,0,0,1-.753,1.259l-6.976,4.566A1.676,1.676,0,0,1,579.04,260.016Z" transform="translate(-176.273 -12.387)" fill="#fff"/>
      <path id="Path_211" data-name="Path 211" d="M581.746,260.911l-.162.106a1.675,1.675,0,0,1-2.545-1l-22.387-90.678L598.2,151.819l-1.017,11.842C574.314,168.2,565.308,202.693,581.746,260.911Z" transform="translate(-176.273 -12.387)" fill="#ededed"/>
      <path id="Path_212" data-name="Path 212" d="M458.689,178.608C505.054,148.673,569.9,105.87,586.222,98.42s35.937-4.7,39.446,2.087-11.058,27.218-23.07,32.77S476.387,185.33,464.763,190.35,445.283,187.858,458.689,178.608Z" transform="translate(-157.916 -2.273)" fill="#fff"/>
      <path id="Path_213" data-name="Path 213" d="M549.587,147.935c-50.227,22.265-85.107,38.931-97.665,39.316-1.617,5.1,4.677,7.761,12.843,4.234,11.626-5.02,125.824-51.522,137.836-57.073s26.579-25.985,23.07-32.77a6.237,6.237,0,0,0-.806-1.178C618.993,114.064,583.021,133.113,549.587,147.935Z" transform="translate(-157.918 -3.408)" fill="#ededed" style="mix-blend-mode: multiply;isolation: isolate"/>
      <path id="Path_214" data-name="Path 214" d="M437.533,160.739l19.162,30.53,17-10.906L442.33,158.717a.678.678,0,0,0-.573-.093l-3.838,1.1A.678.678,0,0,0,437.533,160.739Z" transform="translate(-155.429 -13.572)" fill="#fff"/>
      <path id="Path_215" data-name="Path 215" d="M480.221,240.693l-13.844-33.281,18.727-7.575-.46,38.109a.676.676,0,0,1-.255.521l-3.117,2.494A.679.679,0,0,1,480.221,240.693Z" transform="translate(-160.49 -20.782)" fill="#fff"/>
    </g>
    <g id="Group_10" data-name="Group 10" transform="translate(443.226 95.172)">
      <path id="Path_216" data-name="Path 216" d="M647.47,124.758a23.877,23.877,0,0,0,4.707-9.272l-5.146,2.662A23.5,23.5,0,0,1,647.47,124.758Z" transform="translate(-635.301 -101.206)" fill="#8cd3f6"/>
      <path id="Path_217" data-name="Path 217" d="M645.984,114.493l6.049-3.129a10.58,10.58,0,0,0-.86-4.838l-7,3.622A25.028,25.028,0,0,1,645.984,114.493Z" transform="translate(-634.802 -99.64)" fill="#8cd3f6"/>
      <path id="Path_218" data-name="Path 218" d="M632.816,98.207a27.805,27.805,0,0,1,4.345,3.683l5.015-2.594A26.876,26.876,0,0,0,632.816,98.207Z" transform="translate(-632.816 -98.181)" fill="#8cd3f6"/>
      <path id="Path_219" data-name="Path 219" d="M639.868,103.964a29.668,29.668,0,0,1,2.49,3.366l6.988-3.615a10.642,10.642,0,0,0-3.426-2.881Z" transform="translate(-634.049 -98.644)" fill="#8cd3f6"/>
    </g>
    <path id="Path_254" data-name="Path 254" d="M439.855,159.291l-1.935.557a.678.678,0,0,0-.387,1.012l19.162,30.53,17-10.907-3.654-2.522C461.24,185.859,446.545,177.832,439.855,159.291Z" transform="translate(-155.429 -13.693)" fill="#ededed"/>
    <path id="Path_255" data-name="Path 255" d="M482.843,239.7l-1.572,1.258a.679.679,0,0,1-1.05-.269l-13.844-33.281,18.727-7.575-.054,4.439C473.518,206.9,471.578,223.531,482.843,239.7Z" transform="translate(-160.49 -20.782)" fill="#ededed"/>
  </g>
</svg>
